# xmcd CD database file
#
# Track frame offsets:
#	150
#	21645
#	48868
#	72600
#	99870
#	113218
#	138513
#	159328
#	188078
#	205435
#	231243
#	250545
#	268363
#	286503
#
# Disc length: 4153 seconds
#
# Revision: 0
# Processed by: cddbd v1.5.1PL0 Copyright (c) Steve Scherf et al.
# Submitted via: CD2WAV32(EN) R3.19
#
DISCID=c910370e
DTITLE=St.Giga - Ocean Blue [CD3]
DYEAR=1900
DGENRE=
TTITLE0=Best Friend's Man
TTITLE1=Dread A Who She Loves
TTITLE2=That's How Heartaches Are Made
TTITLE3=Lonely-Love On A Mountain Top
TTITLE4=Dup Pon Me Corner
TTITLE5=Every Man
TTITLE6=Run Around Girl
TTITLE7=Mellow
TTITLE8=Love And Stranger
TTITLE9=If I Give My Heart To You
TTITLE10=Hello Stranger
TTITLE11=A Natural Woman
TTITLE12=Don't Let Me Be Lonely
TTITLE13=Baby,Baby,My Love's All For You
EXTD=
EXTT0=
EXTT1=
EXTT2=
EXTT3=
EXTT4=
EXTT5=
EXTT6=
EXTT7=
EXTT8=
EXTT9=
EXTT10=
EXTT11=
EXTT12=
EXTT13=
PLAYORDER=
